<svg xmlns="http://www.w3.org/2000/svg" xmlns:xlink="http://www.w3.org/1999/xlink" width="200" zoomAndPan="magnify" viewBox="0 0 150 149.999998" height="200" preserveAspectRatio="xMidYMid meet" version="1.0"><defs><clipPath id="63ee5bcb22"><path d="M 118 51 L 129 51 L 129 60 L 118 60 Z M 118 51 " clip-rule="nonzero"/></clipPath><clipPath id="6913e7855c"><path d="M 120.644531 64.378906 L 114.960938 52.964844 L 126.375 47.28125 L 132.058594 58.695312 Z M 120.644531 64.378906 " clip-rule="nonzero"/></clipPath><clipPath id="a2344971fb"><path d="M 120.644531 64.378906 L 114.960938 52.964844 L 126.375 47.28125 L 132.058594 58.695312 Z M 120.644531 64.378906 " clip-rule="nonzero"/></clipPath><clipPath id="813fdf2405"><path d="M 120.644531 64.378906 L 114.960938 52.964844 L 126.375 47.28125 L 132.058594 58.695312 Z M 120.644531 64.378906 " clip-rule="nonzero"/></clipPath><clipPath id="12b521a031"><path d="M 14 20 L 26 20 L 26 31 L 14 31 Z M 14 20 " clip-rule="nonzero"/></clipPath><clipPath id="8cc83e060b"><path d="M 22.878906 15 L 30.703125 26.910156 L 18.796875 34.734375 L 10.96875 22.828125 Z M 22.878906 15 " clip-rule="nonzero"/></clipPath><clipPath id="393f61b513"><path d="M 22.878906 15 L 30.703125 26.910156 L 18.796875 34.734375 L 10.96875 22.828125 Z M 22.878906 15 " clip-rule="nonzero"/></clipPath><clipPath id="3901dedb84"><path d="M 22.878906 15 L 30.703125 26.910156 L 18.796875 34.734375 L 10.96875 22.828125 Z M 22.878906 15 " clip-rule="nonzero"/></clipPath></defs><path fill="#fa4d56" d="M 94.050781 9.738281 C 100.246094 13.457031 106.261719 18.234375 106.792969 23.855469 C 107.324219 29.476562 102.414062 35.9375 100.554688 43.902344 C 98.652344 51.867188 99.847656 61.335938 96.085938 65.363281 C 92.367188 69.433594 83.695312 68.0625 75.332031 67.75 C 66.925781 67.398438 58.78125 68.0625 52.808594 64.742188 C 46.835938 61.425781 43.03125 54.078125 43.03125 47.132812 C 43.03125 40.226562 46.835938 33.679688 49.667969 27.441406 C 52.5 21.199219 54.445312 15.269531 58.515625 10.847656 C 62.589844 6.421875 68.828125 3.5 75.15625 3.414062 C 81.4375 3.324219 87.855469 5.980469 94.050781 9.738281 Z M 94.050781 9.738281 " fill-opacity="1" fill-rule="nonzero"/><g clip-path="url(#63ee5bcb22)"><g clip-path="url(#6913e7855c)"><g clip-path="url(#a2344971fb)"><g clip-path="url(#813fdf2405)"><path fill="#fa4d56" d="M 119.019531 55.011719 C 119.101562 53.972656 119.332031 52.890625 120.023438 52.460938 C 120.714844 52.03125 121.863281 52.25 123.007812 51.980469 C 124.15625 51.710938 125.300781 50.949219 126.0625 51.175781 C 126.828125 51.394531 127.207031 52.601562 127.703125 53.699219 C 128.199219 54.804688 128.808594 55.8125 128.761719 56.796875 C 128.71875 57.78125 128.015625 58.742188 127.121094 59.191406 C 126.230469 59.632812 125.140625 59.5625 124.152344 59.597656 C 123.167969 59.632812 122.277344 59.761719 121.445312 59.523438 C 120.613281 59.28125 119.835938 58.664062 119.417969 57.855469 C 119.003906 57.050781 118.933594 56.050781 119.019531 55.011719 Z M 119.019531 55.011719 " fill-opacity="1" fill-rule="nonzero"/></g></g></g></g><g clip-path="url(#12b521a031)"><g clip-path="url(#8cc83e060b)"><g clip-path="url(#393f61b513)"><g clip-path="url(#3901dedb84)"><path fill="#fa4d56" d="M 25.925781 25.179688 C 25.976562 26.34375 25.863281 27.574219 25.15625 28.144531 C 24.445312 28.710938 23.140625 28.621094 21.90625 29.078125 C 20.667969 29.523438 19.496094 30.523438 18.625 30.371094 C 17.746094 30.234375 17.164062 28.945312 16.464844 27.792969 C 15.769531 26.628906 14.960938 25.59375 14.878906 24.496094 C 14.796875 23.398438 15.449219 22.234375 16.382812 21.621094 C 17.3125 21.011719 18.53125 20.945312 19.621094 20.773438 C 20.710938 20.601562 21.679688 20.339844 22.636719 20.496094 C 23.589844 20.652344 24.535156 21.234375 25.109375 22.078125 C 25.675781 22.914062 25.886719 24.011719 25.925781 25.179688 Z M 25.925781 25.179688 " fill-opacity="1" fill-rule="nonzero"/></g></g></g></g></svg>