<svg xmlns="http://www.w3.org/2000/svg" xmlns:xlink="http://www.w3.org/1999/xlink" width="200" zoomAndPan="magnify" viewBox="0 0 150 149.999998" height="200" preserveAspectRatio="xMidYMid meet" version="1.0"><defs><clipPath id="c099cefc54"><path d="M 42 2 L 114 2 L 114 71 L 42 71 Z M 42 2 " clip-rule="nonzero"/></clipPath><clipPath id="45eb4fe4b8"><path d="M 10.253906 -1.742188 L 113.417969 -28.1875 L 139.863281 74.976562 L 36.699219 101.421875 Z M 10.253906 -1.742188 " clip-rule="nonzero"/></clipPath><clipPath id="95c617b37b"><path d="M 10.253906 -1.742188 L 113.417969 -28.1875 L 139.863281 74.976562 L 36.699219 101.421875 Z M 10.253906 -1.742188 " clip-rule="nonzero"/></clipPath><clipPath id="acf0514653"><path d="M 10.253906 -1.742188 L 113.417969 -28.1875 L 139.863281 74.976562 L 36.699219 101.421875 Z M 10.253906 -1.742188 " clip-rule="nonzero"/></clipPath><clipPath id="059100fb93"><path d="M 23 51 L 33 51 L 33 62 L 23 62 Z M 23 51 " clip-rule="nonzero"/></clipPath><clipPath id="c1f65d3e45"><path d="M 25.226562 66.757812 L 18.410156 54.242188 L 30.921875 47.425781 L 37.738281 59.9375 Z M 25.226562 66.757812 " clip-rule="nonzero"/></clipPath><clipPath id="6cf0e8580f"><path d="M 25.226562 66.757812 L 18.410156 54.242188 L 30.921875 47.425781 L 37.738281 59.9375 Z M 25.226562 66.757812 " clip-rule="nonzero"/></clipPath><clipPath id="b5791603d8"><path d="M 25.226562 66.757812 L 18.410156 54.242188 L 30.921875 47.425781 L 37.738281 59.9375 Z M 25.226562 66.757812 " clip-rule="nonzero"/></clipPath><clipPath id="c15ecb253a"><path d="M 120 13 L 133 13 L 133 26 L 120 26 Z M 120 13 " clip-rule="nonzero"/></clipPath><clipPath id="662698c550"><path d="M 135.324219 9.585938 L 136.425781 27.550781 L 118.460938 28.652344 L 117.355469 10.6875 Z M 135.324219 9.585938 " clip-rule="nonzero"/></clipPath><clipPath id="242a981e25"><path d="M 135.324219 9.585938 L 136.425781 27.550781 L 118.460938 28.652344 L 117.355469 10.6875 Z M 135.324219 9.585938 " clip-rule="nonzero"/></clipPath><clipPath id="9e5823bce0"><path d="M 135.324219 9.585938 L 136.425781 27.550781 L 118.460938 28.652344 L 117.355469 10.6875 Z M 135.324219 9.585938 " clip-rule="nonzero"/></clipPath></defs><g clip-path="url(#c099cefc54)"><g clip-path="url(#45eb4fe4b8)"><g clip-path="url(#95c617b37b)"><g clip-path="url(#acf0514653)"><path fill="#f1c21b" d="M 87.609375 3.441406 C 91.625 5.820312 92.058594 15.660156 96.003906 22.894531 C 99.984375 30.0625 107.410156 34.589844 111.109375 41.945312 C 114.847656 49.230469 114.804688 59.355469 109.617188 64.644531 C 104.433594 69.933594 94.167969 70.417969 85.460938 70.121094 C 76.753906 69.824219 69.734375 68.820312 63.878906 65.925781 C 57.972656 63.039062 53.269531 58.199219 49.761719 52.667969 C 46.253906 47.132812 43.96875 40.792969 42.839844 33.386719 C 41.675781 26.046875 41.738281 17.507812 46.199219 13.671875 C 50.707031 9.820312 59.652344 10.609375 67.890625 8.441406 C 76.117188 6.222656 83.65625 1.101562 87.609375 3.441406 Z M 87.609375 3.441406 " fill-opacity="1" fill-rule="nonzero"/></g></g></g></g><g clip-path="url(#059100fb93)"><g clip-path="url(#c1f65d3e45)"><g clip-path="url(#6cf0e8580f)"><g clip-path="url(#b5791603d8)"><path fill="#f1c21b" d="M 23.359375 56.550781 C 23.535156 55.953125 24.796875 55.574219 25.605469 54.824219 C 26.40625 54.074219 26.75 52.960938 27.582031 52.238281 C 28.402344 51.515625 29.71875 51.1875 30.574219 51.6875 C 31.429688 52.1875 31.832031 53.503906 32.078125 54.640625 C 32.324219 55.78125 32.425781 56.722656 32.242188 57.578125 C 32.0625 58.441406 31.589844 59.207031 30.988281 59.84375 C 30.382812 60.480469 29.636719 60.988281 28.710938 61.375 C 27.796875 61.769531 26.6875 62.039062 26.046875 61.589844 C 25.398438 61.128906 25.207031 59.945312 24.65625 58.945312 C 24.097656 57.953125 23.183594 57.140625 23.359375 56.550781 Z M 23.359375 56.550781 " fill-opacity="1" fill-rule="nonzero"/></g></g></g></g><g clip-path="url(#c15ecb253a)"><g clip-path="url(#662698c550)"><g clip-path="url(#242a981e25)"><g clip-path="url(#9e5823bce0)"><path fill="#f1c21b" d="M 132 22.257812 C 131.476562 22.851562 129.828125 22.609375 128.5 23.03125 C 127.183594 23.464844 126.195312 24.554688 124.859375 24.933594 C 123.53125 25.320312 121.851562 24.992188 121.136719 23.960938 C 120.425781 22.933594 120.671875 21.214844 121 19.777344 C 121.324219 18.34375 121.714844 17.207031 122.382812 16.328125 C 123.050781 15.441406 124.003906 14.8125 125.03125 14.410156 C 126.0625 14.003906 127.1875 13.824219 128.453125 13.875 C 129.710938 13.914062 131.125 14.195312 131.621094 15.058594 C 132.113281 15.929688 131.699219 17.390625 131.796875 18.828125 C 131.902344 20.261719 132.511719 21.675781 132 22.257812 Z M 132 22.257812 " fill-opacity="1" fill-rule="nonzero"/></g></g></g></g></svg>