<svg xmlns="http://www.w3.org/2000/svg" xmlns:xlink="http://www.w3.org/1999/xlink" width="200" zoomAndPan="magnify" viewBox="0 0 150 149.999998" height="200" preserveAspectRatio="xMidYMid meet" version="1.0"><defs><clipPath id="6bd5eef6e8"><path d="M 113 47 L 126 47 L 126 61 L 113 61 Z M 113 47 " clip-rule="nonzero"/></clipPath><clipPath id="0bb4810cfc"><path d="M 113.367188 66.402344 L 105.921875 48.378906 L 123.945312 40.933594 L 131.390625 58.957031 Z M 113.367188 66.402344 " clip-rule="nonzero"/></clipPath><clipPath id="9d02e1ab67"><path d="M 113.367188 66.402344 L 105.921875 48.378906 L 123.945312 40.933594 L 131.390625 58.957031 Z M 113.367188 66.402344 " clip-rule="nonzero"/></clipPath><clipPath id="d4bc67fb49"><path d="M 113.367188 66.402344 L 105.921875 48.378906 L 123.945312 40.933594 L 131.390625 58.957031 Z M 113.367188 66.402344 " clip-rule="nonzero"/></clipPath><clipPath id="861562027d"><path d="M 24 15 L 34 15 L 34 25 L 24 25 Z M 24 15 " clip-rule="nonzero"/></clipPath><clipPath id="3db0baa7a2"><path d="M 37.238281 25.964844 L 23.398438 29.367188 L 20 15.527344 L 33.835938 12.128906 Z M 37.238281 25.964844 " clip-rule="nonzero"/></clipPath><clipPath id="96feb9c211"><path d="M 37.238281 25.964844 L 23.398438 29.367188 L 20 15.527344 L 33.835938 12.128906 Z M 37.238281 25.964844 " clip-rule="nonzero"/></clipPath><clipPath id="b3a257a734"><path d="M 37.238281 25.964844 L 23.398438 29.367188 L 20 15.527344 L 33.835938 12.128906 Z M 37.238281 25.964844 " clip-rule="nonzero"/></clipPath></defs><path fill="#08bdba" d="M 93.714844 9.617188 C 98.675781 11.316406 103.257812 15.429688 103.871094 20.152344 C 104.488281 24.878906 101.085938 30.21875 100.421875 37.730469 C 99.761719 45.242188 101.792969 54.929688 98.535156 58.613281 C 95.273438 62.253906 86.722656 59.9375 78.59375 59.324219 C 70.464844 58.660156 62.8125 59.75 56.054688 57.195312 C 49.296875 54.644531 43.441406 48.503906 41.929688 41.511719 C 40.414062 34.46875 43.25 26.625 46.511719 19.679688 C 49.820312 12.6875 53.597656 6.640625 58.9375 5.03125 C 64.277344 3.472656 71.175781 6.355469 77.316406 7.441406 C 83.460938 8.578125 88.753906 7.867188 93.714844 9.617188 Z M 93.714844 9.617188 " fill-opacity="1" fill-rule="nonzero"/><g clip-path="url(#6bd5eef6e8)"><g clip-path="url(#0bb4810cfc)"><g clip-path="url(#9d02e1ab67)"><g clip-path="url(#d4bc67fb49)"><path fill="#08bdba" d="M 113.695312 52.234375 C 113.628906 51.15625 114.054688 49.957031 114.90625 49.46875 C 115.757812 48.980469 117.046875 49.207031 118.53125 48.742188 C 120.015625 48.277344 121.703125 47.125 122.660156 47.457031 C 123.613281 47.792969 123.84375 49.605469 124.367188 51.203125 C 124.882812 52.804688 125.691406 54.179688 125.738281 55.667969 C 125.785156 57.160156 125.074219 58.761719 123.859375 59.597656 C 122.636719 60.441406 120.917969 60.519531 119.335938 60.445312 C 117.742188 60.367188 116.289062 60.121094 115.5625 59.230469 C 114.84375 58.332031 114.851562 56.792969 114.574219 55.535156 C 114.308594 54.273438 113.753906 53.320312 113.695312 52.234375 Z M 113.695312 52.234375 " fill-opacity="1" fill-rule="nonzero"/></g></g></g></g><g clip-path="url(#861562027d)"><g clip-path="url(#3db0baa7a2)"><g clip-path="url(#96feb9c211)"><g clip-path="url(#b3a257a734)"><path fill="#08bdba" d="M 27.039062 24.171875 C 26.25 24.101562 25.433594 23.664062 25.171875 22.996094 C 24.910156 22.324219 25.21875 21.421875 25.042969 20.296875 C 24.871094 19.171875 24.226562 17.828125 24.570312 17.171875 C 24.917969 16.519531 26.253906 16.550781 27.464844 16.347656 C 28.679688 16.152344 29.761719 15.71875 30.839844 15.851562 C 31.921875 15.980469 33 16.667969 33.476562 17.636719 C 33.949219 18.613281 33.816406 19.867188 33.589844 21 C 33.355469 22.144531 33.019531 23.164062 32.296875 23.59375 C 31.570312 24.011719 30.457031 23.839844 29.519531 23.902344 C 28.578125 23.957031 27.828125 24.25 27.039062 24.171875 Z M 27.039062 24.171875 " fill-opacity="1" fill-rule="nonzero"/></g></g></g></g></svg>