<svg xmlns="http://www.w3.org/2000/svg" xmlns:xlink="http://www.w3.org/1999/xlink" width="200" zoomAndPan="magnify" viewBox="0 0 150 149.999998" height="200" preserveAspectRatio="xMidYMid meet" version="1.0"><defs><clipPath id="7bc04267aa"><path d="M 117 47 L 131 47 L 131 59 L 117 59 Z M 117 47 " clip-rule="nonzero"/></clipPath><clipPath id="3f519eda17"><path d="M 134.988281 57.59375 L 119.65625 65.5 L 111.753906 50.167969 L 127.085938 42.261719 Z M 134.988281 57.59375 " clip-rule="nonzero"/></clipPath><clipPath id="ddb207a40e"><path d="M 134.988281 57.59375 L 119.65625 65.5 L 111.753906 50.167969 L 127.085938 42.261719 Z M 134.988281 57.59375 " clip-rule="nonzero"/></clipPath><clipPath id="4864b4522d"><path d="M 134.988281 57.59375 L 119.65625 65.5 L 111.753906 50.167969 L 127.085938 42.261719 Z M 134.988281 57.59375 " clip-rule="nonzero"/></clipPath><clipPath id="fb4b20b625"><path d="M 16 17 L 24 17 L 24 27 L 16 27 Z M 16 17 " clip-rule="nonzero"/></clipPath><clipPath id="2236b2da44"><path d="M 12.628906 26.714844 L 15.226562 15 L 26.941406 17.597656 L 24.34375 29.3125 Z M 12.628906 26.714844 " clip-rule="nonzero"/></clipPath><clipPath id="a5d76be1ad"><path d="M 12.628906 26.714844 L 15.226562 15 L 26.941406 17.597656 L 24.34375 29.3125 Z M 12.628906 26.714844 " clip-rule="nonzero"/></clipPath><clipPath id="646a18f08c"><path d="M 12.628906 26.714844 L 15.226562 15 L 26.941406 17.597656 L 24.34375 29.3125 Z M 12.628906 26.714844 " clip-rule="nonzero"/></clipPath></defs><path fill="#24a148" d="M 93.132812 14.882812 C 100.351562 17.601562 110.148438 19.335938 112.445312 24.070312 C 114.742188 28.804688 109.585938 36.492188 105.226562 42.820312 C 100.867188 49.148438 97.398438 54.117188 92.757812 58.054688 C 88.117188 62.039062 82.304688 65.039062 75.554688 66.398438 C 68.757812 67.804688 60.976562 67.570312 54.929688 64.054688 C 48.835938 60.539062 44.570312 53.742188 41.570312 46.148438 C 38.570312 38.554688 36.929688 30.164062 39.835938 23.882812 C 42.742188 17.601562 50.242188 13.476562 57.132812 10.617188 C 64.023438 7.757812 70.257812 6.164062 75.742188 7.242188 C 81.226562 8.320312 85.867188 12.117188 93.132812 14.882812 Z M 93.132812 14.882812 " fill-opacity="1" fill-rule="nonzero"/><g clip-path="url(#7bc04267aa)"><g clip-path="url(#3f519eda17)"><g clip-path="url(#ddb207a40e)"><g clip-path="url(#4864b4522d)"><path fill="#24a148" d="M 122.371094 58.597656 C 120.960938 58.761719 119.210938 59.304688 118.4375 58.726562 C 117.660156 58.144531 117.855469 56.453125 118.035156 55.050781 C 118.214844 53.648438 118.363281 52.542969 118.789062 51.507812 C 119.214844 50.464844 119.910156 49.484375 120.898438 48.691406 C 121.894531 47.886719 123.183594 47.269531 124.46875 47.335938 C 125.765625 47.398438 127.035156 48.148438 128.164062 49.136719 C 129.296875 50.125 130.273438 51.359375 130.328125 52.632812 C 130.382812 53.90625 129.503906 55.210938 128.617188 56.261719 C 127.730469 57.308594 126.84375 58.097656 125.859375 58.382812 C 124.871094 58.667969 123.789062 58.4375 122.371094 58.597656 Z M 122.371094 58.597656 " fill-opacity="1" fill-rule="nonzero"/></g></g></g></g><g clip-path="url(#fb4b20b625)"><g clip-path="url(#2236b2da44)"><g clip-path="url(#a5d76be1ad)"><g clip-path="url(#646a18f08c)"><path fill="#24a148" d="M 17.707031 19.519531 C 18.25 18.695312 18.738281 17.515625 19.390625 17.363281 C 20.046875 17.207031 20.863281 18.0625 21.535156 18.78125 C 22.203125 19.503906 22.730469 20.074219 23.09375 20.761719 C 23.460938 21.453125 23.675781 22.261719 23.660156 23.144531 C 23.648438 24.03125 23.402344 25 22.796875 25.65625 C 22.1875 26.320312 21.21875 26.664062 20.1875 26.832031 C 19.15625 26.996094 18.0625 26.96875 17.355469 26.429688 C 16.652344 25.894531 16.34375 24.839844 16.179688 23.902344 C 16.011719 22.960938 15.984375 22.136719 16.273438 21.480469 C 16.558594 20.828125 17.160156 20.351562 17.707031 19.519531 Z M 17.707031 19.519531 " fill-opacity="1" fill-rule="nonzero"/></g></g></g></g></svg>