<svg xmlns="http://www.w3.org/2000/svg" xmlns:xlink="http://www.w3.org/1999/xlink" width="200" zoomAndPan="magnify" viewBox="0 0 150 149.999998" height="200" preserveAspectRatio="xMidYMid meet" version="1.0"><defs><clipPath id="a8bcb5d8de"><path d="M 120 8 L 131 8 L 131 19 L 120 19 Z M 120 8 " clip-rule="nonzero"/></clipPath><clipPath id="42fd2b9fe8"><path d="M 124.1875 22.765625 L 115.917969 12.097656 L 126.585938 3.824219 L 134.859375 14.496094 Z M 124.1875 22.765625 " clip-rule="nonzero"/></clipPath><clipPath id="d06bb5b4a0"><path d="M 124.1875 22.765625 L 115.917969 12.097656 L 126.585938 3.824219 L 134.859375 14.496094 Z M 124.1875 22.765625 " clip-rule="nonzero"/></clipPath><clipPath id="c810b1505d"><path d="M 124.1875 22.765625 L 115.917969 12.097656 L 126.585938 3.824219 L 134.859375 14.496094 Z M 124.1875 22.765625 " clip-rule="nonzero"/></clipPath><clipPath id="af4158d6a7"><path d="M 16 45 L 25 45 L 25 54 L 16 54 Z M 16 45 " clip-rule="nonzero"/></clipPath><clipPath id="a909a855b3"><path d="M 24.488281 44.507812 L 25.367188 54.214844 L 15.65625 55.09375 L 14.777344 45.382812 Z M 24.488281 44.507812 " clip-rule="nonzero"/></clipPath><clipPath id="5370aa2a44"><path d="M 24.488281 44.507812 L 25.367188 54.214844 L 15.65625 55.09375 L 14.777344 45.382812 Z M 24.488281 44.507812 " clip-rule="nonzero"/></clipPath><clipPath id="6c1fcb46c3"><path d="M 24.488281 44.507812 L 25.367188 54.214844 L 15.65625 55.09375 L 14.777344 45.382812 Z M 24.488281 44.507812 " clip-rule="nonzero"/></clipPath></defs><path fill="#8a3ffc" d="M 97.074219 14.226562 C 102.25 19.984375 104.214844 28.148438 105.777344 36.449219 C 107.292969 44.796875 108.410156 53.230469 104.75 58.226562 C 101.046875 63.179688 92.523438 64.699219 84.3125 68.179688 C 76.101562 71.660156 68.15625 77.148438 63.203125 75.097656 C 58.25 73.042969 56.199219 63.492188 51.558594 55.417969 C 46.917969 47.339844 39.644531 40.824219 39.242188 34.128906 C 38.839844 27.480469 45.265625 20.699219 52.40625 15.296875 C 59.5 9.941406 67.308594 5.972656 75.433594 5.613281 C 83.507812 5.257812 91.898438 8.515625 97.074219 14.226562 Z M 97.074219 14.226562 " fill-opacity="1" fill-rule="nonzero"/><g clip-path="url(#a8bcb5d8de)"><g clip-path="url(#42fd2b9fe8)"><g clip-path="url(#d06bb5b4a0)"><g clip-path="url(#c810b1505d)"><path fill="#8a3ffc" d="M 120.058594 13.226562 C 120.265625 12.074219 121.058594 11.082031 121.90625 10.128906 C 122.765625 9.171875 123.667969 8.257812 124.605469 8.230469 C 125.539062 8.214844 126.511719 9.09375 127.6875 9.753906 C 128.867188 10.410156 130.257812 10.851562 130.472656 11.636719 C 130.6875 12.417969 129.734375 13.546875 129.199219 14.851562 C 128.664062 16.15625 128.558594 17.628906 127.796875 18.296875 C 127.039062 18.960938 125.632812 18.820312 124.324219 18.46875 C 123.027344 18.117188 121.828125 17.550781 121.03125 16.613281 C 120.242188 15.679688 119.855469 14.375 120.058594 13.226562 Z M 120.058594 13.226562 " fill-opacity="1" fill-rule="nonzero"/></g></g></g></g><g clip-path="url(#af4158d6a7)"><g clip-path="url(#a909a855b3)"><g clip-path="url(#5370aa2a44)"><g clip-path="url(#6c1fcb46c3)"><path fill="#8a3ffc" d="M 23.289062 51.917969 C 22.714844 52.539062 21.84375 52.832031 20.957031 53.082031 C 20.0625 53.328125 19.15625 53.535156 18.578125 53.183594 C 18 52.832031 17.753906 51.917969 17.292969 51.058594 C 16.835938 50.199219 16.160156 49.390625 16.332031 48.832031 C 16.507812 48.273438 17.527344 47.953125 18.359375 47.371094 C 19.191406 46.785156 19.832031 45.929688 20.554688 45.820312 C 21.273438 45.710938 22.074219 46.34375 22.734375 47.066406 C 23.386719 47.789062 23.894531 48.597656 24.011719 49.476562 C 24.132812 50.351562 23.859375 51.296875 23.289062 51.917969 Z M 23.289062 51.917969 " fill-opacity="1" fill-rule="nonzero"/></g></g></g></g></svg>