<svg xmlns="http://www.w3.org/2000/svg" xmlns:xlink="http://www.w3.org/1999/xlink" width="200" zoomAndPan="magnify" viewBox="0 0 150 149.999998" height="200" preserveAspectRatio="xMidYMid meet" version="1.0"><defs><clipPath id="9fc87c4eff"><path d="M 44 8 L 110 8 L 110 67 L 44 67 Z M 44 8 " clip-rule="nonzero"/></clipPath><clipPath id="01b27cb554"><path d="M 82.945312 -29.15625 L 149.28125 40.238281 L 79.886719 106.574219 L 13.550781 37.183594 Z M 82.945312 -29.15625 " clip-rule="nonzero"/></clipPath><clipPath id="0ec652d095"><path d="M 82.945312 -29.15625 L 149.28125 40.238281 L 79.886719 106.574219 L 13.550781 37.183594 Z M 82.945312 -29.15625 " clip-rule="nonzero"/></clipPath><clipPath id="4556cc489a"><path d="M 82.945312 -29.15625 L 149.28125 40.238281 L 79.886719 106.574219 L 13.550781 37.183594 Z M 82.945312 -29.15625 " clip-rule="nonzero"/></clipPath><clipPath id="25878fbf96"><path d="M 122 11 L 133 11 L 133 22 L 122 22 Z M 122 11 " clip-rule="nonzero"/></clipPath><clipPath id="fe01a2a488"><path d="M 137.988281 15.105469 L 129.785156 28.550781 L 116.339844 20.34375 L 124.542969 6.902344 Z M 137.988281 15.105469 " clip-rule="nonzero"/></clipPath><clipPath id="6695128766"><path d="M 137.988281 15.105469 L 129.785156 28.550781 L 116.339844 20.34375 L 124.542969 6.902344 Z M 137.988281 15.105469 " clip-rule="nonzero"/></clipPath><clipPath id="1b3bd51667"><path d="M 137.988281 15.105469 L 129.785156 28.550781 L 116.339844 20.34375 L 124.542969 6.902344 Z M 137.988281 15.105469 " clip-rule="nonzero"/></clipPath><clipPath id="2e0feee129"><path d="M 22 45 L 31 45 L 31 55 L 22 55 Z M 22 45 " clip-rule="nonzero"/></clipPath><clipPath id="17e13d40bd"><path d="M 17.253906 48.988281 L 26.800781 39.445312 L 36.347656 48.988281 L 26.800781 58.535156 Z M 17.253906 48.988281 " clip-rule="nonzero"/></clipPath><clipPath id="110dd8ab40"><path d="M 17.253906 48.988281 L 26.800781 39.445312 L 36.347656 48.988281 L 26.800781 58.535156 Z M 17.253906 48.988281 " clip-rule="nonzero"/></clipPath><clipPath id="442f897ebc"><path d="M 17.253906 48.988281 L 26.800781 39.445312 L 36.347656 48.988281 L 26.800781 58.535156 Z M 17.253906 48.988281 " clip-rule="nonzero"/></clipPath></defs><g clip-path="url(#9fc87c4eff)"><g clip-path="url(#01b27cb554)"><g clip-path="url(#0ec652d095)"><g clip-path="url(#4556cc489a)"><path fill="#0f62fe" d="M 105.980469 33.425781 C 104.1875 40.511719 103.703125 45.492188 101.214844 48.933594 C 98.761719 52.410156 94.339844 54.3125 89.675781 57.910156 C 85.046875 61.46875 80.207031 66.691406 75.484375 66.957031 C 70.761719 67.15625 66.113281 62.503906 60.820312 57.800781 C 55.5625 53.132812 49.691406 48.453125 46.546875 41.828125 C 43.4375 35.171875 43.054688 26.507812 46.566406 19.898438 C 50.042969 13.253906 57.410156 8.667969 64.546875 8.351562 C 71.683594 8.039062 78.621094 12.03125 86.789062 12.65625 C 94.992188 13.25 104.425781 10.472656 107.609375 13.734375 C 110.796875 17 107.769531 26.265625 105.980469 33.425781 Z M 105.980469 33.425781 " fill-opacity="1" fill-rule="nonzero"/></g></g></g></g><g clip-path="url(#25878fbf96)"><g clip-path="url(#fe01a2a488)"><g clip-path="url(#6695128766)"><g clip-path="url(#1b3bd51667)"><path fill="#0f62fe" d="M 129.039062 21.398438 C 127.839844 21.410156 127.027344 21.546875 126.378906 21.296875 C 125.722656 21.054688 125.234375 20.433594 124.46875 19.84375 C 123.707031 19.261719 122.675781 18.714844 122.433594 17.976562 C 122.203125 17.234375 122.746094 16.300781 123.269531 15.265625 C 123.785156 14.234375 124.28125 13.105469 125.199219 12.328125 C 126.125 11.554688 127.480469 11.128906 128.675781 11.40625 C 129.875 11.675781 130.914062 12.652344 131.265625 13.769531 C 131.617188 14.890625 131.277344 16.15625 131.523438 17.476562 C 131.773438 18.804688 132.613281 20.183594 132.226562 20.824219 C 131.84375 21.46875 130.25 21.378906 129.039062 21.398438 Z M 129.039062 21.398438 " fill-opacity="1" fill-rule="nonzero"/></g></g></g></g><g clip-path="url(#2e0feee129)"><g clip-path="url(#17e13d40bd)"><g clip-path="url(#110dd8ab40)"><g clip-path="url(#442f897ebc)"><path fill="#0f62fe" d="M 25.980469 45.554688 C 26.980469 45.78125 27.683594 45.835938 28.175781 46.171875 C 28.671875 46.507812 28.953125 47.125 29.472656 47.769531 C 29.988281 48.40625 30.738281 49.070312 30.789062 49.734375 C 30.832031 50.398438 30.195312 51.066406 29.550781 51.824219 C 28.910156 52.578125 28.269531 53.417969 27.347656 53.882812 C 26.421875 54.339844 25.207031 54.421875 24.265625 53.949219 C 23.320312 53.480469 22.652344 52.460938 22.585938 51.457031 C 22.519531 50.453125 23.058594 49.46875 23.121094 48.316406 C 23.175781 47.160156 22.757812 45.84375 23.207031 45.386719 C 23.65625 44.929688 24.96875 45.324219 25.980469 45.554688 Z M 25.980469 45.554688 " fill-opacity="1" fill-rule="nonzero"/></g></g></g></g></svg>